<svg width="300" height="238" viewBox="0 0 300 238" fill="none" xmlns="http://www.w3.org/2000/svg">
<g clip-path="url(#clip0_1_5438)">
<path d="M158.946 232.244C221.597 232.244 272.386 181.34 272.386 118.546C272.386 55.7527 221.597 4.84839 158.946 4.84839C96.2951 4.84839 45.5064 55.7527 45.5064 118.546C45.5064 181.34 96.2951 232.244 158.946 232.244Z" fill="#FFFF33"/>
<path d="M157.883 237.357C92.6886 237.357 39.6494 184.197 39.6494 118.854C39.6494 53.511 92.6886 0.357422 157.883 0.357422C223.078 0.357422 276.111 53.5174 276.111 118.861C276.111 184.204 223.072 237.364 157.883 237.364V237.357ZM157.883 8.05618C96.9261 8.05618 47.3307 57.7645 47.3307 118.861C47.3307 179.957 96.9261 229.665 157.883 229.665C218.841 229.665 268.43 179.957 268.43 118.861C268.43 57.7645 218.841 8.05618 157.883 8.05618Z" fill="black"/>
<path d="M157.883 222.601C100.812 222.601 54.3719 176.062 54.3719 118.854C54.3719 61.646 100.812 15.1134 157.883 15.1134C214.955 15.1134 261.389 61.6524 261.389 118.861C261.389 176.069 214.955 222.608 157.883 222.608V222.601ZM157.883 22.8122C105.043 22.8122 62.0531 65.8996 62.0531 118.861C62.0531 171.822 105.043 214.909 157.883 214.909C210.724 214.909 253.707 171.822 253.707 118.861C253.707 65.8996 210.724 22.8122 157.883 22.8122Z" fill="black"/>
<path d="M157.858 33.7188C110.874 33.7188 72.7109 71.9688 72.7109 119.06C72.7109 166.15 110.874 204.4 157.858 204.4C204.842 204.4 243.005 166.15 243.005 119.06C243.005 71.9688 204.842 33.7188 157.858 33.7188ZM154.171 41.5458V78.2753C144.697 78.0508 135.691 76.9922 127.389 75.2472C128.848 70.8075 130.512 66.6823 132.362 62.974C138.463 50.7523 146.195 43.3101 154.171 41.5394V41.5458ZM161.545 41.5458C169.521 43.3165 177.259 50.7587 183.353 62.9805C185.21 66.6951 186.874 70.8396 188.34 75.2921C180.044 77.0179 171.025 78.0572 161.545 78.2753V41.5458ZM136.357 44.1442C132.35 48.3464 128.784 53.6072 125.757 59.67C123.651 63.8979 121.801 68.5557 120.188 73.5278C112.948 71.571 106.393 69.1074 100.741 66.246C110.26 55.9104 122.486 48.1219 136.357 44.1377V44.1442ZM179.359 44.1442C193.217 48.1283 205.431 55.8976 214.949 66.2204C209.38 69.1331 202.832 71.6223 195.554 73.5855C193.934 68.5941 192.078 63.9107 189.959 59.67C186.938 53.6072 183.366 48.3464 179.359 44.1442ZM219.775 72.0008C228.986 84.1649 234.779 99.0812 235.535 115.364H202.179C201.91 102.95 200.329 91.2285 197.615 80.7261C205.891 78.4806 213.355 75.5423 219.769 72.0008H219.775ZM95.8956 72.0586C102.38 75.5102 109.856 78.4165 118.107 80.662C115.387 91.1772 113.799 102.924 113.53 115.364H80.1745C80.9299 99.1069 86.7036 84.2162 95.8892 72.0586H95.8956ZM125.302 82.4006C134.276 84.3125 143.974 85.4544 154.164 85.679V115.364H120.911C121.186 103.482 122.735 92.2999 125.302 82.4006ZM190.426 82.4519C192.98 92.3384 194.523 103.502 194.798 115.364H161.545V85.679C171.742 85.4609 181.452 84.3445 190.426 82.4519ZM80.1809 122.755H113.537C113.806 135.169 115.387 146.891 118.101 157.393C109.824 159.638 102.361 162.577 95.9468 166.118C86.7356 153.954 80.9427 139.038 80.1873 122.755H80.1809ZM120.917 122.755H154.171V152.44C143.974 152.658 134.264 153.775 125.289 155.667C122.735 145.781 121.193 134.617 120.917 122.755ZM161.545 122.755H194.798C194.523 134.637 192.974 145.819 190.407 155.718C181.433 153.807 171.735 152.665 161.545 152.44V122.755ZM202.179 122.755H235.535C234.779 139.012 229.006 153.903 219.82 166.06C213.336 162.609 205.859 159.703 197.608 157.457C200.329 146.942 201.916 135.195 202.185 122.755H202.179ZM154.171 159.844V196.573C146.195 194.803 138.456 187.36 132.362 175.139C130.506 171.424 128.842 167.279 127.376 162.827C135.672 161.101 144.691 160.062 154.171 159.844ZM161.545 159.844C171.018 160.068 180.025 161.127 188.327 162.872C186.867 167.312 185.203 171.437 183.353 175.145C177.253 187.367 169.521 194.809 161.545 196.58V159.85V159.844ZM120.168 164.527C121.788 169.519 123.644 174.202 125.763 178.443C128.784 184.505 132.356 189.766 136.363 193.968C122.505 189.984 110.292 182.215 100.773 171.892C106.342 168.98 112.89 166.49 120.168 164.527ZM195.528 164.585C202.768 166.542 209.322 169.005 214.975 171.867C205.456 182.202 193.23 189.991 179.359 193.975C183.366 189.773 186.931 184.512 189.959 178.449C192.065 174.221 193.915 169.563 195.528 164.591V164.585Z" fill="black"/>
<path d="M54.7879 79.9113L119.439 69.0047L123.279 74.7788L125.2 68.3632L148.243 64.5138L151.444 63.8722L206.013 53.6521L210.334 56.1734L208.413 63.2306V65.1553L212.894 70.9294L211.3 73.4058L173.848 80.5529L157.205 83.7607L154.645 79.9113L151.444 83.7607L97.6751 94.0257L60.5489 100.441L53.5077 88.8932L54.7879 79.9113Z" fill="black"/>
<path d="M275.01 53.4404L250.724 65.8995L247.575 65.8033L231.195 63.4295L210.839 69.2357L205.527 72.2189L194.312 72.0842L177.637 78.2625L177.714 76.1325L177.24 75.7283C176.978 75.5037 170.615 70.1852 159.797 69.1266C149.965 68.1707 134.468 70.7241 116.315 88.3029L106.368 89.1434L85.6347 93.66L77.5885 92.7105L67.9741 97.7018L45.1223 100.23L44.0982 107.883L30.4639 103.014L25.9832 101.089L0.378906 110.713L6.33189 124.866L40.2127 188.945L40.3407 189.189L49.347 196.137L75.1881 190.684L76.846 169.647L79.7777 175.03L91.5812 184.602L116.187 179.123L117.736 144.388C122.473 150.47 134.507 164.097 150.215 168.601C155.086 169.993 159.554 170.712 163.728 170.712C175.666 170.712 185.171 164.848 194.594 152.26C198.255 147.372 199.42 143.221 199.676 140.302L206.397 148.95L215.551 160.883L240.905 156.2L250.36 149.887L261.913 150.81L262.042 150.823L292.165 147.154L299.302 67.8499L299.379 67.0159L275.01 53.4468V53.4404Z" fill="black"/>
<path d="M45.2503 173.836L14.8389 114.53L30.8736 111.489L44.0149 118.437L49.9679 131.172L51.7346 107.531L70.2721 104.008L83.3687 110.963L89.6353 123.91L91.0884 100.056L106.861 97.0602L116.539 104.939L109.875 171.058L96.4781 173.599L85.6602 166.208L73.1526 141.675L69.504 178.718L56.1065 181.265L45.2375 173.843L45.2503 173.836ZM54.3591 165.72L59.4479 114.402L65.9514 113.17L89.4177 159.067L95.1722 157.977L99.6658 105.176L97.9503 105.503L93.6616 156.713L90.365 157.335L66.8987 111.438L57.9372 113.138L52.8484 164.456L49.5519 165.085L26.8729 118.995L25.1574 119.322L48.6045 166.817L54.3591 165.727V165.72ZM49.6927 134.495L42.7795 119.573L32.557 114.126L48.6365 148.879L49.6927 134.495ZM68.0701 177.345L71.7891 139.012L64.9016 125.449L60.4273 171.36L47.9068 173.733L56.4202 179.552L68.0637 177.339L68.0701 177.345ZM89.4497 127.22L82.1333 112.098L71.962 106.684L88.6047 141.29L89.4497 127.22ZM108.442 169.679L114.855 105.612L107.283 99.4789L100.805 163.693L88.2847 166.067L96.8045 171.886L108.448 169.679H108.442Z" fill="white"/>
<path d="M143.321 153.89L136.382 149.187C128.976 144.209 123.42 136.69 121.602 127.092C118.158 108.865 130.135 91.3568 148.327 87.9052C157.768 86.1088 166.935 88.6109 174.302 93.6472L182.88 99.5431C190.875 105.003 195.675 112.349 197.455 121.767C200.841 139.686 188.769 157.168 170.666 160.601C160.738 162.487 153.287 160.614 143.321 153.89ZM180.415 115.929C177.669 101.397 164.054 91.947 149.6 94.6865C135.044 97.5864 125.917 111.181 128.669 125.751C131.421 140.321 145.094 149.816 159.503 147.077C173.912 144.337 183.18 130.543 180.415 115.922V115.929ZM130.295 125.443C127.69 111.662 136.312 98.7604 149.882 96.1813C163.459 93.6022 176.184 102.449 178.789 116.237C181.401 130.062 172.792 143.009 159.215 145.582C145.638 148.161 132.9 139.269 130.288 125.443H130.295ZM145.011 130.357C142.956 119.483 149.594 109.327 160.137 107.325C162.511 106.876 164.63 107.017 166.704 107.627C162.62 103.611 157.026 101.936 151.169 102.956C141.503 104.791 135.461 113.965 137.317 124.057C138.642 130.601 142.246 135.439 147.93 137.825C146.598 135.843 145.613 133.52 145.017 130.351L145.011 130.357ZM195.867 122.068C194.017 112.297 189.249 105.587 180.556 99.7998C184.211 104.214 186.189 108.673 187.488 114.581C190.932 132.808 178.969 150.406 160.783 153.858C155.163 154.923 149.466 154.41 144.134 152.684C153.422 159.221 161.001 160.793 170.359 159.016C187.578 155.744 199.087 139.102 195.867 122.068ZM171.761 117.571C171.21 114.665 170.141 112.131 168.644 110.001C166.07 108.666 163.459 108.339 160.431 108.916C150.765 110.751 144.684 119.977 146.592 130.062C147.379 134.245 148.628 136.747 150.829 138.743C153.063 139.23 155.438 139.282 157.941 138.807C167.562 136.978 173.668 127.656 171.767 117.571H171.761Z" fill="white"/>
<path d="M215.781 141.456L185.37 82.1503L201.404 79.1093L214.546 86.0574L220.499 98.7925L222.265 75.1509L240.803 71.6287L253.899 78.5832L260.166 91.53L261.619 67.6766L277.391 64.6805L287.07 72.5589L280.406 138.678L267.009 141.225L256.191 133.835L243.683 109.301L240.035 146.345L226.637 148.892L215.768 141.469L215.781 141.456ZM224.89 133.341L229.979 82.022L236.482 80.7902L259.948 126.688L265.703 125.597L270.196 72.7963L268.481 73.1235L264.192 124.333L260.896 124.955L237.429 79.058L228.468 80.7581L223.379 132.077L220.083 132.699L197.404 86.6092L195.688 86.9364L219.135 134.431L224.89 133.341ZM220.223 102.122L213.31 87.1994L203.088 81.7525L219.167 116.506L220.223 102.122ZM238.601 144.966L242.32 106.632L235.432 93.0697L230.958 138.98L218.438 141.36L226.957 147.179L238.601 144.966ZM259.98 94.8469L252.664 79.7252L242.493 74.3104L259.135 108.916L259.98 94.8469ZM278.972 137.306L285.386 73.239L277.814 67.1057L271.336 131.32L258.815 133.694L267.335 139.512L278.979 137.299L278.972 137.306Z" fill="white"/>
<path d="M69.6128 88.0271L66.8539 82.0862L62.9813 82.7598L62.386 89.291L59.7296 83.3308L56.1194 83.9596L61.7715 95.3858L64.94 94.8341L65.7786 87.3663L69.0815 94.1091L72.25 93.5574L73.7095 80.8865L70.0993 81.5152L69.6128 88.0271Z" fill="white"/>
<path d="M79.7841 79.597C76.3275 80.2 74.0103 83.5041 74.6056 86.9557C74.9001 88.6366 75.8218 90.1058 77.2173 91.0809C78.2414 91.7995 79.432 92.1973 80.661 92.2358C81.0963 92.2486 81.5316 92.2165 81.9669 92.1395C85.4234 91.5364 87.7406 88.226 87.1389 84.768C86.5372 81.3163 83.2343 78.9939 79.7841 79.597ZM83.2343 87.6165C82.8054 88.2581 82.1461 88.6815 81.3844 88.8162C80.6226 88.951 79.8609 88.7713 79.24 88.3158C78.6127 87.8539 78.1902 87.161 78.0558 86.359C77.7678 84.7102 78.7855 83.2025 80.3666 82.9267C80.565 82.8946 80.7571 82.8753 80.9555 82.8818C81.5124 82.901 82.0565 83.0806 82.5174 83.4207C83.1447 83.8762 83.5607 84.5691 83.7015 85.371C83.8424 86.173 83.6823 86.9749 83.2471 87.6165H83.2343Z" fill="white"/>
<path d="M97.6302 80.9956C97.4318 79.8407 96.7789 78.8591 95.7931 78.2432C94.8202 77.6338 93.5848 77.4156 92.311 77.6402L87.5102 78.4806L89.6033 90.5292L92.9703 89.939L92.343 86.3334L93.1175 86.1986L95.5819 89.4834L99.5762 88.7841L96.3692 84.7487C97.3742 83.7029 97.8543 82.2979 97.6302 80.9956ZM94.0713 82.6123C93.8856 82.8753 93.5912 83.0486 93.2327 83.1127L91.8309 83.3565L91.434 81.0533L92.8359 80.8095C93.1943 80.7453 93.5272 80.8095 93.796 80.9956C94.0457 81.1688 94.2121 81.4382 94.2633 81.7462C94.3145 82.0541 94.2505 82.3621 94.0777 82.6123H94.0713Z" fill="white"/>
<path d="M193.006 64.3149C192.808 63.1601 192.155 62.1785 191.169 61.5626C190.196 60.9531 188.961 60.735 187.687 60.9595L182.886 61.8L184.979 73.8485L188.346 73.2583L187.719 69.6527L188.493 69.518L190.958 72.8028L194.952 72.1035L191.745 68.068C192.75 67.0223 193.23 65.6173 193.006 64.3149ZM189.447 65.9316C189.261 66.1947 188.967 66.3679 188.609 66.432L187.207 66.6758L186.81 64.3726L188.212 64.1288C188.57 64.0647 188.903 64.1288 189.172 64.3149C189.421 64.4881 189.588 64.7576 189.639 65.0655C189.69 65.3735 189.626 65.6814 189.453 65.9316H189.447Z" fill="white"/>
<path d="M103.526 84.7359L102.002 75.9465L98.6032 76.5431L100.696 88.5917L108.915 87.1546L108.352 83.8954L103.526 84.7359Z" fill="white"/>
<path d="M112.257 74.1565L108.058 74.8879L110.151 86.9364L114.35 86.2051C118.037 85.5635 120.188 82.638 119.573 79.1029C118.965 75.6064 115.892 73.5213 112.257 74.1565ZM113.793 82.9844L112.993 83.1255L112.033 77.6017L112.833 77.4605C113.658 77.313 114.407 77.4285 114.984 77.7942C115.604 78.1791 115.995 78.8271 116.148 79.706C116.449 81.4511 115.572 82.6765 113.799 82.9844H113.793Z" fill="white"/>
<path d="M130.359 70.769C128.688 71.0641 127.229 71.988 126.249 73.3738C125.27 74.7659 124.892 76.4533 125.18 78.1277C125.475 79.8086 126.397 81.2778 127.792 82.253C128.816 82.978 130.007 83.3693 131.236 83.4078C131.671 83.4206 132.106 83.3886 132.542 83.3116C134.219 83.0229 135.678 82.0926 136.651 80.7068C137.631 79.3146 138.008 77.6209 137.714 75.94C137.112 72.4884 133.815 70.1659 130.359 70.769ZM133.815 78.7821C133.387 79.4237 132.727 79.8471 131.966 79.9819C130.385 80.2577 128.919 79.1735 128.631 77.5183C128.49 76.7163 128.656 75.9208 129.085 75.2792C129.514 74.6441 130.173 74.2206 130.935 74.0859C131.133 74.0538 131.325 74.0346 131.524 74.041C132.087 74.0602 132.625 74.2399 133.086 74.5799C133.713 75.0354 134.129 75.7283 134.27 76.5303C134.411 77.3322 134.251 78.1342 133.815 78.7757V78.7821Z" fill="white"/>
<path d="M146.63 68.1578L138.091 69.6463L140.185 81.6948L143.539 81.111L142.835 77.0627L147.162 76.3057L146.598 73.0915L142.271 73.8485L142.009 72.3088L147.194 71.4041L146.63 68.1578Z" fill="white"/>
<path d="M165.181 71.3464L162.422 65.3991L158.549 66.0792L157.954 72.6039L155.297 66.6438L151.687 67.2725L157.339 78.7052L160.508 78.147L161.346 70.6792L164.649 77.4284L167.818 76.8703L169.277 64.1994L165.667 64.8345L165.181 71.3464Z" fill="white"/>
<path d="M180.095 63.9684C178.706 62.9933 177.023 62.6211 175.346 62.9098C173.675 63.205 172.215 64.1288 171.236 65.5146C170.257 66.9068 169.879 68.5941 170.167 70.2686C170.692 73.2968 173.284 75.4524 176.235 75.5486C176.658 75.5615 177.093 75.5294 177.522 75.4588C180.978 74.8558 183.296 71.5453 182.694 68.0873C182.4 66.4128 181.478 64.95 180.089 63.9748L180.095 63.9684ZM178.802 70.9294C178.373 71.571 177.714 71.9944 176.952 72.1291C176.19 72.2638 175.429 72.0842 174.808 71.6287C174.181 71.1668 173.758 70.4739 173.624 69.6719C173.483 68.87 173.649 68.0744 174.078 67.4329C174.507 66.7977 175.166 66.3743 175.928 66.2396C176.126 66.2075 176.319 66.1882 176.517 66.1947C177.074 66.2139 177.618 66.3935 178.079 66.7336C178.706 67.1891 179.122 67.882 179.263 68.6839C179.404 69.4859 179.244 70.2878 178.809 70.9294H178.802Z" fill="white"/>
<path d="M202.94 70.7434L207.14 70.0056L201.283 63.8081L204.778 57.9827L200.546 58.7461L198.184 62.8136L197.57 59.2658L194.171 59.856L196.264 71.9046L199.663 71.3144L198.94 67.1699L199.221 66.6887L202.94 70.7434Z" fill="white"/>
</g>
<defs>
<clipPath id="clip0_1_5438">
<rect width="299" height="237" fill="white" transform="translate(0.378906 0.357422)"/>
</clipPath>
</defs>
</svg>
